# xmcd CD database file
#
# Track frame offsets:
#	150
#	19402
#	32050
#	48034
#	65867
#	78691
#	96306
#	115759
#	135943
#	153097
#	171534
#	186773
#	204169
#	221953
#	238284
#	255222
#	270347
#	285464
#	301516
#	319008
#
# Disc length: 4467 seconds
#
# Revision: 0
# Processed by: cddbd v1.5.2PL0 Copyright (c) Steve Scherf et al.
# Submitted via: CDex 1.79
#
DISCID=12117114
DTITLE=Various Artist - Hot country.mix 2009 CD1
DYEAR=1900
DGENRE=Country
TTITLE0=Whole lot of leavin'
TTITLE1=Come on over
TTITLE2=Teardrops on my guitar
TTITLE3=I'm coming home
TTITLE4=Jambalaya
TTITLE5=Love story
TTITLE6=We dared the lightning
TTITLE7=Rock 'n roll rodeo
TTITLE8=We've got tonight
TTITLE9=Rhinestone cowboy
TTITLE10=Lulu's eyes
TTITLE11=You look good in my shirt
TTITLE12=Start a band
TTITLE13=Ferever and for always
TTITLE14=Somebody like you
TTITLE15=Not fair
TTITLE16=Sweet about me
TTITLE17=Becaise it's love
TTITLE18=Amazed
TTITLE19=Can't fight the moonlight
EXTD=
EXTT0=
EXTT1=
EXTT2=
EXTT3=
EXTT4=
EXTT5=
EXTT6=
EXTT7=
EXTT8=
EXTT9=
EXTT10=
EXTT11=
EXTT12=
EXTT13=
EXTT14=
EXTT15=
EXTT16=
EXTT17=
EXTT18=
EXTT19=
PLAYORDER=
